<?xml version="1.0" encoding="UTF-8" standalone="no"?>
<!-- Created with Inkscape (http://www.inkscape.org/) -->

<svg
   width="220"
   height="323"
   viewBox="0 0 220 323"
   version="1.1"
   id="svg1"
   xmlns="http://www.w3.org/2000/svg"
   xmlns:svg="http://www.w3.org/2000/svg">
  <defs
     id="defs1">
    <clipPath
       clipPathUnits="userSpaceOnUse"
       id="clipPath67">
      <path
         id="path67"
         style="fill:#ff0000;fill-opacity:1;fill-rule:nonzero;stroke:none"
         d="M 0,16 V 323 H 220 V 16 h -56.02539 v 12.978516 h -1.1875 -1.30469 -1.16211 -1.94336 -4.20312 -4.89649 -4.91015 -4.89063 -4.91015 -4.89649 -4.9043 -4.89648 -4.91211 -4.89258 -4.9082 -4.88867 -4.835939 -4.580079 -4.074218 -4.146485 -6.316406 -12.257812 -3.484375 -1.617188 -1.214844 -1.054687 V 16 Z" />
    </clipPath>
    <clipPath
       clipPathUnits="userSpaceOnUse"
       id="clipPath175">
      <path
         id="path176"
         style="fill:#ff0000;fill-opacity:1;fill-rule:nonzero;stroke:none"
         d="m 40,120 v 50 h 90 v -36.59766 c -0.15184,-0.006 -0.30338,-0.008 -0.45508,-0.0156 -0.49835,-0.0204 -0.99654,-0.0502 -1.49414,-0.084 -0.44439,-0.0306 -0.889,-0.0542 -1.33398,-0.0742 -0.48228,-0.0212 -0.96475,-0.0378 -1.44727,-0.0527 -0.4792,-0.0148 -0.95819,-0.0249 -1.4375,-0.0352 -0.48634,-0.0106 -0.97258,-0.0184 -1.45898,-0.0254 -0.48712,-0.007 -0.97379,-0.0126 -1.46094,-0.0176 -0.48197,-0.005 -0.96529,-0.009 -1.44727,-0.0117 -0.48281,-0.003 -0.96444,-0.006 -1.44726,-0.008 -0.531,-0.002 -1.06275,-0.003 -1.59375,-0.004 -0.55068,-0.002 -1.10167,-0.003 -1.65235,-0.004 -0.61334,-0.001 -1.2265,-9.5e-4 -1.83984,-0.002 -0.49116,-0.006 -0.98172,2.4e-4 -1.47266,0.0137 -0.53241,0.0157 -1.06515,0.0284 -1.59765,0.041 -0.026,6.1e-4 -0.0521,0.001 -0.0781,0.002 -0.22057,0.0488 -0.44222,0.0926 -0.66211,0.14453 -0.315,0.0767 -0.62107,0.18781 -0.92382,0.30274 -0.38472,0.14704 -0.75627,0.32685 -1.12696,0.50585 -0.37755,0.18493 -0.74777,0.3832 -1.10937,0.59766 -0.31897,0.18855 -0.63956,0.37417 -0.93946,0.5918 -0.24868,0.19889 -0.53166,0.36018 -0.76171,0.58203 0.12103,-0.0989 0.007,0.0368 -0.0254,0.084 -0.1214,0.19174 -0.24477,0.3858 -0.36133,0.58203 -0.0982,0.17146 -0.18798,0.34465 -0.26758,0.5254 -0.13056,0.28467 -0.24571,0.57819 -0.36133,0.86914 -0.11277,0.29898 -0.21572,0.60108 -0.32226,0.90234 l -14.298833,-5.07422 c 0.172196,-0.48251 0.337696,-0.96726 0.527344,-1.44336 0.215035,-0.53901 0.431021,-1.07709 0.675781,-1.60351 0.321588,-0.69079 0.668722,-1.36946 1.060547,-2.02344 0.419415,-0.68995 0.852225,-1.37416 1.34375,-2.01563 0.660551,-0.84365 1.368554,-1.65204 2.185547,-2.34961 0.597066,-0.50235 1.215151,-0.97874 1.853515,-1.42773 0.662744,-0.46444 1.34343,-0.90078 2.044922,-1.30469 0.716546,-0.41551 1.442507,-0.81127 2.189457,-1.16992 0.28578,-0.13673 0.57463,-0.26887 0.86328,-0.40039 z" />
    </clipPath>
  </defs>
  <g
     id="layer1"
     clip-path="url(#clipPath67)">
    <rect
       style="fill:none;stroke:#008080;stroke-width:10;stroke-dasharray:none;stroke-opacity:1"
       id="rect1"
       width="210"
       height="297"
       x="5"
       y="21"
       ry="25"
       rx="25" />
  </g>
  <g
     id="layer3"
     style="display:inline">
    <rect
       style="display:inline;fill:none;fill-opacity:1;stroke:#008080;stroke-width:10;stroke-dasharray:none;stroke-opacity:1"
       id="rect2"
       width="110"
       height="45"
       x="55"
       y="5"
       ry="10"
       rx="10" />
  </g>
  <g
     id="layer4">
    <g
       id="g176"
       transform="matrix(1.0017805,1.0017805,-1.0017805,1.0017805,145.06232,-86.454024)">
      <rect
         style="fill:none;fill-opacity:1;stroke:#008080;stroke-width:10;stroke-dasharray:none;stroke-opacity:1"
         id="rect68"
         width="80"
         height="40"
         x="45"
         y="125"
         rx="20"
         ry="20"
         clip-path="url(#clipPath175)" />
      <rect
         style="fill:none;fill-opacity:1;stroke:#008080;stroke-width:10;stroke-dasharray:none;stroke-opacity:1"
         id="rect176"
         width="80"
         height="40"
         x="45"
         y="125"
         rx="20"
         ry="20"
         clip-path="url(#clipPath175)"
         transform="rotate(180,110,145)" />
    </g>
  </g>
</svg>
